<svg width="34" height="34" viewBox="0 0 34 34" fill="none" xmlns="http://www.w3.org/2000/svg">
<path fill-rule="evenodd" clip-rule="evenodd" d="M28.946 5.32617C26.08 2.22436 22.1556 0.32843 17.9598 0.0185547V17.8245H18.0557L28.946 5.32617Z" fill="#242424"/>
<path fill-rule="evenodd" clip-rule="evenodd" d="M15.7758 0C11.5095 0.239066 7.49602 2.11436 4.55977 5.24072C1.62352 8.36708 -0.0126343 12.5072 -0.0126343 16.8106C-0.0126343 21.114 1.62352 25.2541 4.55977 28.3804C7.49602 31.5068 11.5095 33.3821 15.7758 33.6211V0Z" fill="#242424"/>
<path fill-rule="evenodd" clip-rule="evenodd" d="M17.9598 33.5876C21.8313 33.3035 25.4831 31.6682 28.2858 28.9634L20.5856 18.1216L17.9709 21.1747L17.9598 33.5876Z" fill="#242424"/>
<path fill-rule="evenodd" clip-rule="evenodd" d="M29.8089 27.2735C32.0648 24.4144 33.3366 20.8941 33.4324 17.2434C33.5282 13.5928 32.4428 10.0098 30.34 7.03467L22.0497 16.4242L29.8089 27.2735Z" fill="#242424"/>
</svg>
