<svg width="126" height="34" viewBox="0 0 126 34" fill="none" xmlns="http://www.w3.org/2000/svg">
<g clip-path="url(#clip0_525_26)">
<path fill-rule="evenodd" clip-rule="evenodd" d="M28.9461 5.3262C26.0801 2.22439 22.1557 0.328461 17.96 0.0185852V17.8246H18.0558L28.9461 5.3262Z" fill="#1C701C"/>
<path fill-rule="evenodd" clip-rule="evenodd" d="M15.7757 0C11.5094 0.239066 7.49596 2.11436 4.55971 5.24072C1.62346 8.36708 -0.0126953 12.5072 -0.0126953 16.8106C-0.0126953 21.114 1.62346 25.2541 4.55971 28.3804C7.49596 31.5068 11.5094 33.3821 15.7757 33.6211V0Z" fill="#228B22"/>
<path fill-rule="evenodd" clip-rule="evenodd" d="M17.96 33.5877C21.8314 33.3037 25.4832 31.6683 28.2859 28.9635L20.5857 18.1217L17.971 21.1748L17.96 33.5877Z" fill="#29A329"/>
<path fill-rule="evenodd" clip-rule="evenodd" d="M29.8091 27.2736C32.065 24.4145 33.3367 20.8942 33.4325 17.2435C33.5283 13.5929 32.4429 10.0099 30.3401 7.03476L22.0498 16.4243L29.8091 27.2736Z" fill="#165416"/>
<path d="M39.7329 2.46994H42.6242V9.09612H42.7975L48.4104 2.46994H51.9028V2.64452L46.371 9.03299L52.5003 17.7503V17.9248H48.9636L44.4017 11.3432L42.6426 13.3935V17.9248H39.7513L39.7329 2.46994Z" fill="#292B28"/>
<path d="M59.7728 16.8032H59.5995C59.2616 17.2139 58.8562 17.5632 58.4009 17.8357C57.8594 18.1461 57.2421 18.2967 56.6197 18.2703C56.093 18.2718 55.5706 18.1761 55.0782 17.988C54.6209 17.822 54.1991 17.5699 53.8354 17.2452C53.4793 16.9276 53.194 16.5377 52.9982 16.1012C52.7933 15.6335 52.6914 15.1266 52.6995 14.6155C52.6886 14.1017 52.7985 13.5926 53.0204 13.1298C53.2412 12.7085 53.5478 12.3389 53.9202 12.0452C54.3198 11.7224 54.7784 11.4814 55.2699 11.3358C55.8243 11.1583 56.4031 11.0705 56.9848 11.0758C57.5539 11.0627 58.1224 11.1201 58.6775 11.2467C59.0537 11.3284 59.4235 11.4376 59.7839 11.5735V11.2467C59.7893 10.9801 59.7315 10.7161 59.6154 10.4765C59.4993 10.2368 59.3283 10.0285 59.1164 9.86872C58.6526 9.48665 58.0667 9.28733 57.4679 9.30787C56.9908 9.30657 56.5199 9.41695 56.0924 9.6303C55.6649 9.84365 55.2924 10.1541 55.0044 10.5373L52.9687 9.13329C53.5097 8.44357 54.205 7.89255 54.9979 7.52525C55.7907 7.15794 56.6586 6.98477 57.5306 7.01989C59.1606 7.01989 60.4047 7.40741 61.2627 8.18245C62.1207 8.95748 62.5485 10.0941 62.5461 11.5921V17.9397H59.7839L59.7728 16.8032ZM59.7728 13.6275C59.4436 13.4679 59.0988 13.3434 58.7439 13.2561C58.3743 13.1515 57.9919 13.1002 57.608 13.1038C57.0506 13.0694 56.4984 13.2294 56.0444 13.5569C55.876 13.6812 55.7393 13.844 55.6457 14.0319C55.5521 14.2199 55.5042 14.4275 55.506 14.6378C55.5007 14.8394 55.5451 15.0393 55.6352 15.2194C55.7253 15.3996 55.8582 15.5545 56.0222 15.6703C56.3768 15.9294 56.8049 16.0662 57.2429 16.0603C57.5952 16.0647 57.9448 15.9991 58.2719 15.8672C58.5668 15.7367 58.8355 15.5529 59.0647 15.3249C59.287 15.1046 59.4615 14.8403 59.5773 14.5486C59.7044 14.2583 59.7709 13.9448 59.7728 13.6275Z" fill="#292B28"/>
<path d="M64.3975 7.35042H67.0343V8.72841H67.204C67.5376 8.20761 67.9936 7.77769 68.5316 7.47672C69.1108 7.15991 69.7607 6.99752 70.4198 7.005C71.1322 6.97921 71.8353 7.17504 72.4333 7.56586C72.9461 7.90137 73.349 8.38207 73.5913 8.94754C73.9432 8.39046 74.4193 7.92373 74.9816 7.58442C75.5647 7.25389 76.2139 7.05929 76.8815 7.01493C77.5491 6.97058 78.218 7.07761 78.8391 7.32814C79.291 7.51258 79.6893 7.80898 79.9971 8.18984C80.3233 8.58921 80.5643 9.05197 80.7052 9.54926C80.8661 10.1029 80.9456 10.6772 80.9412 11.2541V17.9397H78.1348V11.7741C78.1348 10.333 77.5484 9.61611 76.3757 9.61611C76.0303 9.60904 75.6897 9.6977 75.391 9.8724C75.096 10.0349 74.8433 10.2652 74.6534 10.5447C74.4529 10.8495 74.3011 11.1841 74.2035 11.5364C74.1019 11.9456 74.0524 12.3662 74.056 12.7881V17.9248H71.2532V11.7741C71.2532 10.333 70.641 9.61611 69.4093 9.61611C69.0768 9.60935 68.7493 9.69826 68.4652 9.8724C68.186 10.0375 67.9507 10.2681 67.7793 10.5447C67.5804 10.8476 67.4356 11.1832 67.3515 11.5364C67.2474 11.9453 67.1953 12.3659 67.1966 12.7881V17.9248H64.3901L64.3975 7.35042Z" fill="#292B28"/>
<path d="M89.5596 16.8032H89.39C89.0498 17.2131 88.6434 17.5622 88.1877 17.8357C87.648 18.1471 87.0316 18.2978 86.4102 18.2703C85.8835 18.2721 85.361 18.1765 84.8687 17.988C84.411 17.8228 83.9891 17.5707 83.6259 17.2451C83.2687 16.9287 82.9831 16.5385 82.7887 16.1012C82.5838 15.6335 82.4819 15.1266 82.49 14.6155C82.4791 14.1017 82.589 13.5926 82.8108 13.1298C83.0235 12.6864 83.3308 12.2957 83.7107 11.9858C84.1094 11.6615 84.5682 11.4203 85.0604 11.2764C85.6146 11.0983 86.1936 11.0105 86.7753 11.0164C87.3443 11.0033 87.9129 11.0606 88.468 11.1873C88.8444 11.2682 89.2142 11.3774 89.5744 11.5141V11.1873C89.5796 10.9211 89.5221 10.6575 89.4067 10.418C89.2914 10.1785 89.1213 9.96988 88.9105 9.80927C88.4468 9.4272 87.8609 9.22788 87.2621 9.24842C86.7844 9.24683 86.3128 9.35707 85.8847 9.57042C85.4565 9.78377 85.0835 10.0944 84.7949 10.4778L82.7592 9.07386C83.3005 8.38363 83.9965 7.83229 84.79 7.46496C85.5835 7.09763 86.4521 6.92475 87.3248 6.96047C88.9548 6.96047 90.1976 7.34799 91.0532 8.12302C91.9087 8.89805 92.3378 10.0346 92.3403 11.5327V17.8803H89.5744L89.5596 16.8032ZM89.5596 13.6275C89.2304 13.4679 88.8856 13.3434 88.5307 13.2561C88.1611 13.1514 87.7787 13.1002 87.3949 13.1038C86.8375 13.07 86.2855 13.23 85.8312 13.5569C85.6633 13.6814 85.5271 13.8443 85.4342 14.0323C85.3412 14.2202 85.294 14.4278 85.2964 14.6378C85.2908 14.8391 85.3346 15.0387 85.4241 15.2189C85.5135 15.399 85.6457 15.5541 85.8091 15.6703C86.1636 15.9294 86.5918 16.0662 87.0298 16.0603C87.382 16.0647 87.7316 15.9991 88.0586 15.8672C88.3542 15.7378 88.6232 15.5539 88.8515 15.3249C89.0749 15.1047 89.2507 14.8404 89.3678 14.5486C89.4937 14.2581 89.559 13.9445 89.5596 13.6275Z" fill="#292B28"/>
<path d="M94.3428 17.9248V2.46994H97.1492V17.9248H94.3428Z" fill="#292B28"/>
<path d="M100.903 5.81646C100.661 5.81614 100.422 5.77212 100.195 5.68647C99.9783 5.59744 99.7813 5.46589 99.6154 5.29947C99.4495 5.13305 99.3182 4.93507 99.2289 4.71706C99.0617 4.25655 99.0617 3.75129 99.2289 3.29079C99.3242 3.08231 99.4553 2.89243 99.6162 2.72994C99.9621 2.39295 100.422 2.2005 100.903 2.19137C101.142 2.18795 101.38 2.23401 101.6 2.32664C101.821 2.41928 102.021 2.55653 102.187 2.72994C102.36 2.89225 102.498 3.08961 102.591 3.30913C102.683 3.52864 102.729 3.76538 102.725 4.00391C102.728 4.24557 102.682 4.48529 102.589 4.70824C102.497 4.93119 102.36 5.13267 102.187 5.3002C102.017 5.46768 101.817 5.59958 101.596 5.68821C101.376 5.77685 101.14 5.82043 100.903 5.81646ZM99.5092 17.9248V7.35043H102.316V17.9248H99.5092Z" fill="#292B28"/>
<path d="M111.034 16.8032H110.864C110.525 17.213 110.12 17.5621 109.666 17.8357C109.124 18.1461 108.507 18.2967 107.884 18.2703C107.358 18.2718 106.835 18.1761 106.343 17.988C105.886 17.822 105.464 17.5699 105.1 17.2451C104.744 16.9276 104.459 16.5377 104.263 16.1012C104.058 15.6335 103.956 15.1266 103.964 14.6155C103.953 14.1017 104.063 13.5926 104.285 13.1298C104.505 12.7089 104.81 12.3393 105.181 12.0452C105.581 11.7224 106.039 11.4814 106.531 11.3358C107.085 11.1583 107.664 11.0705 108.246 11.0758C108.815 11.0627 109.383 11.1201 109.938 11.2467C110.315 11.3276 110.685 11.4368 111.045 11.5735V11.2467C111.05 10.9805 110.993 10.7169 110.877 10.4774C110.762 10.2379 110.592 10.0293 110.381 9.86871C109.917 9.48664 109.331 9.28732 108.733 9.30786C108.255 9.30656 107.785 9.41693 107.357 9.63029C106.929 9.84364 106.557 10.1541 106.269 10.5373L104.233 9.13328C104.773 8.44219 105.468 7.89019 106.261 7.52274C107.054 7.1553 107.923 6.98295 108.795 7.01988C110.425 7.01988 111.668 7.4074 112.524 8.18244C113.379 8.95747 113.808 10.094 113.811 11.5921V17.9397H111.045L111.034 16.8032ZM111.034 13.6275C110.705 13.4679 110.36 13.3434 110.005 13.2561C109.637 13.1513 109.255 13.1001 108.873 13.1038C108.314 13.0701 107.761 13.23 107.305 13.5569C107.138 13.682 107.002 13.8451 106.909 14.0329C106.817 14.2207 106.769 14.4279 106.771 14.6378C106.765 14.8394 106.81 15.0392 106.9 15.2194C106.99 15.3996 107.123 15.5545 107.287 15.6703C107.641 15.9294 108.07 16.0662 108.508 16.0603C108.86 16.0644 109.209 15.9988 109.536 15.8672C109.831 15.7367 110.1 15.5529 110.329 15.3249C110.552 15.1046 110.726 14.8403 110.842 14.5486C110.968 14.258 111.033 13.9445 111.034 13.6275Z" fill="#292B28"/>
<path d="M118.457 8.72842H118.627C118.953 8.19972 119.412 7.76774 119.958 7.47673C120.542 7.15459 121.199 6.99196 121.865 7.00502C122.458 6.99293 123.048 7.10288 123.598 7.32815C124.078 7.52752 124.5 7.84715 124.823 8.25671C125.168 8.67109 125.42 9.15661 125.56 9.67926C125.74 10.2738 125.827 10.8927 125.818 11.5141V17.9248H123.012V11.8595C123.062 11.2526 122.877 10.6496 122.496 10.177C122.306 9.97945 122.076 9.82671 121.82 9.72973C121.565 9.63275 121.292 9.59396 121.02 9.61613C120.661 9.60908 120.306 9.69747 119.992 9.87241C119.701 10.0415 119.45 10.2706 119.254 10.5447C119.039 10.844 118.879 11.18 118.782 11.5364C118.679 11.9303 118.628 12.3362 118.631 12.7435V17.9434H115.824V7.35044H118.457V8.72842Z" fill="#292B28"/>
<path d="M42.1191 31.0249C41.6583 31.0373 41.1999 30.9529 40.7732 30.7771C40.3465 30.6012 39.9609 30.3378 39.6409 30.0035C38.9932 29.3064 38.6447 28.3802 38.671 27.4258C38.6549 26.9529 38.7324 26.4814 38.8989 26.0389C39.0655 25.5964 39.3177 25.1916 39.6409 24.8481C39.9612 24.5146 40.347 24.2518 40.7737 24.0766C41.2003 23.9014 41.6586 23.8175 42.1191 23.8305C42.7486 23.8144 43.3679 23.9916 43.8949 24.3386C44.4219 24.6856 44.8316 25.1859 45.0694 25.773L43.9188 26.2559C43.783 25.8691 43.527 25.5367 43.1889 25.3079C42.8508 25.0791 42.4486 24.9661 42.0417 24.9856C41.7597 24.9881 41.4816 25.0526 41.2268 25.1745C40.972 25.2964 40.7467 25.4727 40.5666 25.6913C40.1684 26.1811 39.9508 26.7946 39.9508 27.4277C39.9508 28.0607 40.1684 28.6742 40.5666 29.1641C40.7476 29.3814 40.9731 29.5567 41.2278 29.6779C41.4824 29.799 41.7601 29.8632 42.0417 29.8661C42.4574 29.8884 42.8694 29.7775 43.2186 29.5492C43.5677 29.321 43.8361 28.9873 43.9852 28.5958L45.0916 29.0787C44.8608 29.6671 44.4534 30.1683 43.9262 30.5123C43.3871 30.8586 42.7585 31.0369 42.1191 31.0249Z" fill="#292B28"/>
<path d="M45.6001 27.4258C45.5848 26.9526 45.663 26.4811 45.8301 26.0386C45.9972 25.5961 46.25 25.1914 46.5737 24.8481C46.8936 24.515 47.2788 24.2525 47.7048 24.0773C48.1308 23.9021 48.5883 23.8181 49.0483 23.8304C49.5069 23.8159 49.9634 23.8991 50.3879 24.0744C50.8124 24.2498 51.1954 24.5135 51.5118 24.8481C52.1459 25.5548 52.497 26.4733 52.497 27.4258C52.497 28.3783 52.1459 29.2969 51.5118 30.0035C51.1956 30.3386 50.8127 30.6029 50.3882 30.7789C49.9637 30.9549 49.5072 31.0387 49.0483 31.0249C48.5881 31.0368 48.1304 30.9521 47.7044 30.7763C47.2783 30.6005 46.8933 30.3373 46.5737 30.0035C46.2496 29.6605 45.9967 29.2559 45.8295 28.8133C45.6623 28.3708 45.5844 27.8991 45.6001 27.4258ZM46.8614 27.4258C46.8314 28.0741 47.0567 28.7082 47.4884 29.1901C47.6892 29.4034 47.9311 29.5733 48.1993 29.6894C48.4675 29.8055 48.7564 29.8653 49.0483 29.8653C49.3402 29.8653 49.6291 29.8055 49.8973 29.6894C50.1655 29.5733 50.4074 29.4034 50.6083 29.1901C51.0156 28.6965 51.2385 28.075 51.2385 27.4332C51.2385 26.7915 51.0156 26.17 50.6083 25.6764C50.41 25.4587 50.1689 25.2849 49.9004 25.1659C49.6318 25.047 49.3417 24.9856 49.0483 24.9856C48.755 24.9856 48.4648 25.047 48.1963 25.1659C47.9277 25.2849 47.6867 25.4587 47.4884 25.6764C47.0586 26.1536 46.8333 26.7823 46.8614 27.4258Z" fill="#292B28"/>
<path d="M53.3706 24.0496H54.5765V24.9856H54.6319C54.8424 24.635 55.1448 24.3497 55.5059 24.161C55.8863 23.9448 56.3156 23.8309 56.7524 23.8304C57.0997 23.8075 57.4478 23.8596 57.7734 23.9832C58.0991 24.1069 58.3947 24.2992 58.6406 24.5473C59.1185 25.1018 59.3597 25.824 59.3117 26.5567V30.8021H58.0505V26.6421C58.0259 25.5402 57.4739 24.9881 56.3946 24.9856C56.1516 24.9837 55.9115 25.0388 55.6933 25.1464C55.475 25.2541 55.2846 25.4114 55.1371 25.6059C54.7971 26.0153 54.6174 26.5357 54.6319 27.0693V30.7835H53.3706V24.0496Z" fill="#292B28"/>
<path d="M65.7211 28.9301C65.7195 29.2212 65.649 29.5079 65.5156 29.7662C65.3823 30.0246 65.1898 30.2472 64.9541 30.4158C64.3994 30.8353 63.7185 31.0504 63.0253 31.0249C62.3924 31.0373 61.7709 30.8545 61.2441 30.5012C60.7414 30.1565 60.3554 29.6653 60.1377 29.0935L61.2441 28.6106C61.3879 28.9886 61.6346 29.3182 61.9558 29.5615C62.255 29.7646 62.6049 29.8788 62.9654 29.8913C63.326 29.9038 63.6828 29.814 63.9952 29.6321C64.1116 29.5741 64.2107 29.4863 64.2826 29.3773C64.3545 29.2684 64.3966 29.1423 64.4046 29.0118C64.4046 28.581 64.0763 28.2689 63.4199 28.0609L62.2693 27.7713C60.9638 27.4419 60.311 26.808 60.311 25.8695C60.3014 25.5796 60.3639 25.2919 60.4927 25.0325C60.6215 24.773 60.8125 24.5501 61.0486 24.3839C61.6075 23.9886 62.2803 23.7901 62.9626 23.8193C63.525 23.8101 64.079 23.958 64.5631 24.2464C65.0218 24.4989 65.38 24.9029 65.5773 25.3904L64.4709 25.8584C64.3413 25.5723 64.1189 25.3392 63.8403 25.1973C63.5492 25.0278 63.2176 24.9418 62.8815 24.9484C62.5677 24.9439 62.2592 25.0303 61.9927 25.1973C61.8843 25.2572 61.7933 25.3446 61.7286 25.4508C61.664 25.5569 61.6279 25.6782 61.6239 25.8027C61.6239 26.1741 61.9927 26.4638 62.7044 26.631L63.7186 26.891C65.0536 27.2302 65.7211 27.9099 65.7211 28.9301Z" fill="#292B28"/>
<path d="M72.5583 30.802H71.356V29.8735H71.3007C71.0853 30.2263 70.7779 30.5128 70.4119 30.7018C69.915 30.9724 69.3473 31.0819 68.7863 31.0155C68.2252 30.949 67.6982 30.7097 67.2773 30.3303C66.8082 29.7657 66.5731 29.0407 66.6208 28.3061V24.0607H67.8784V28.2244C67.9079 29.3387 68.4574 29.8772 69.5342 29.8772C69.7763 29.8792 70.0156 29.8257 70.2341 29.7208C70.4526 29.6159 70.6446 29.4624 70.7955 29.2718C71.1344 28.8531 71.3136 28.3262 71.3007 27.7861V24.0496H72.5583V30.802Z" fill="#292B28"/>
<path d="M75.2136 20.9333V30.802H73.9561V20.9333H75.2136Z" fill="#292B28"/>
<path d="M79.3331 30.9135C78.8288 30.9288 78.3383 30.7464 77.9649 30.4046C77.7817 30.218 77.6387 29.9954 77.5448 29.7506C77.4509 29.5059 77.4081 29.2442 77.4191 28.9821V25.2084H76.2427V24.0496H77.4191V21.9808H78.6766V24.0496H80.3177V25.2084H78.6766V28.5512C78.6398 28.8822 78.7339 29.2145 78.9385 29.4761C79.0972 29.6264 79.307 29.7101 79.5249 29.7101C79.6215 29.7097 79.7178 29.6997 79.8125 29.6803C79.906 29.6561 79.9973 29.6238 80.0854 29.5838L80.4837 30.698C80.1154 30.8364 79.7261 30.9093 79.3331 30.9135Z" fill="#292B28"/>
<path d="M83.0763 21.7208C83.0777 21.839 83.0551 21.9563 83.0101 22.0654C82.9651 22.1746 82.8985 22.2735 82.8145 22.3559C82.6468 22.5222 82.421 22.6154 82.1857 22.6154C81.9504 22.6154 81.7245 22.5222 81.5569 22.3559C81.4737 22.2727 81.4077 22.1738 81.3627 22.0648C81.3176 21.9558 81.2944 21.8389 81.2944 21.7208C81.2944 21.6027 81.3176 21.4858 81.3627 21.3768C81.4077 21.2678 81.4737 21.1689 81.5569 21.0857C81.6819 20.9614 81.8405 20.8771 82.0129 20.8432C82.1853 20.8093 82.3638 20.8274 82.526 20.8952C82.6882 20.963 82.827 21.0775 82.9249 21.2244C83.0227 21.3712 83.0754 21.5439 83.0763 21.7208ZM82.8145 24.0496V30.8021H81.5569V24.0496H82.8145Z" fill="#292B28"/>
<path d="M84.3154 24.0496H85.5213V24.9856H85.5766C85.7884 24.636 86.0905 24.351 86.4507 24.161C86.8312 23.9452 87.2604 23.8314 87.6972 23.8304C88.0444 23.8075 88.3926 23.8596 88.7182 23.9832C89.0439 24.1069 89.3395 24.2992 89.5853 24.5473C90.0633 25.1018 90.3045 25.824 90.2565 26.5567V30.8021H88.9953V26.6421C88.9707 25.5402 88.4188 24.9881 87.3394 24.9856C87.0965 24.984 86.8565 25.0392 86.6383 25.1468C86.42 25.2544 86.2296 25.4116 86.0819 25.6059C85.7419 26.0153 85.5622 26.5357 85.5766 27.0693V30.7835H84.3154V24.0496Z" fill="#292B28"/>
<path d="M94.5418 29.8735C94.829 29.8814 95.1143 29.8249 95.3771 29.708C95.6399 29.5911 95.8736 29.4167 96.0612 29.1975C96.4599 28.7001 96.6774 28.08 96.6774 27.4407C96.6774 26.8014 96.4599 26.1813 96.0612 25.6839C95.8712 25.4666 95.6374 25.2926 95.3754 25.1733C95.1134 25.0541 94.8293 24.9925 94.5418 24.9925C94.2543 24.9925 93.9701 25.0541 93.7081 25.1733C93.4462 25.2926 93.2124 25.4666 93.0224 25.6839C92.6021 26.166 92.3816 26.7922 92.4065 27.4333C92.3782 28.0749 92.5991 28.7024 93.0224 29.1827C93.2094 29.4035 93.4426 29.58 93.7053 29.6994C93.9679 29.8188 94.2536 29.8783 94.5418 29.8735ZM94.5012 34.0074C94.144 34.0114 93.7883 33.96 93.4465 33.8552C93.1271 33.7695 92.8224 33.6355 92.543 33.4578C92.2837 33.2882 92.0522 33.0789 91.857 32.8375C91.6661 32.598 91.5187 32.3264 91.4218 32.0352L92.6094 31.5412C92.741 31.9259 92.9901 32.2587 93.3211 32.4921C93.6659 32.7377 94.0789 32.8676 94.5012 32.8635C94.7965 32.8809 95.092 32.8345 95.368 32.7276C95.6441 32.6206 95.8942 32.4554 96.1017 32.2432C96.5069 31.7707 96.7132 31.1579 96.677 30.5347V29.8735H96.6217C96.3757 30.238 96.0403 30.5322 95.6481 30.7278C95.2402 30.9314 94.7905 31.0357 94.3352 31.0324C93.9069 31.035 93.4831 30.9437 93.0934 30.7647C92.7036 30.5858 92.3572 30.3235 92.0783 29.9961C91.4556 29.292 91.122 28.3758 91.1452 27.4333C91.1213 26.495 91.4552 25.5832 92.0783 24.8853C92.3562 24.5559 92.7021 24.2915 93.0919 24.1106C93.4818 23.9297 93.906 23.8366 94.3352 23.8379C94.792 23.8329 95.2429 23.9414 95.6481 24.1536C96.0417 24.3402 96.378 24.6302 96.6217 24.993H96.677V24.0571H97.8793V30.5198C97.9056 30.9856 97.8378 31.4519 97.68 31.8905C97.5222 32.3291 97.2775 32.7309 96.961 33.0715C96.6336 33.3885 96.245 33.6345 95.8194 33.7943C95.3937 33.954 94.9401 34.024 94.4865 34L94.5012 34.0074Z" fill="#292B28"/>
</g>
<defs>
<clipPath id="clip0_525_26">
<rect width="125.8" height="34" fill="white"/>
</clipPath>
</defs>
</svg>
