<svg width="126" height="34" viewBox="0 0 126 34" fill="none" xmlns="http://www.w3.org/2000/svg">
<g opacity="0.8">
<g clip-path="url(#clip0_526_1210)">
<path fill-rule="evenodd" clip-rule="evenodd" d="M28.9461 5.32617C26.0801 2.22436 22.1557 0.32843 17.96 0.0185547V17.8245H18.0558L28.9461 5.32617Z" fill="#242424"/>
<path fill-rule="evenodd" clip-rule="evenodd" d="M15.7757 0C11.5094 0.239066 7.49596 2.11436 4.55971 5.24072C1.62346 8.36708 -0.0126953 12.5072 -0.0126953 16.8106C-0.0126953 21.114 1.62346 25.2541 4.55971 28.3804C7.49596 31.5068 11.5094 33.3821 15.7757 33.6211V0Z" fill="#242424"/>
<path fill-rule="evenodd" clip-rule="evenodd" d="M17.96 33.5876C21.8314 33.3035 25.4832 31.6682 28.2859 28.9634L20.5857 18.1216L17.971 21.1747L17.96 33.5876Z" fill="#242424"/>
<path fill-rule="evenodd" clip-rule="evenodd" d="M29.8091 27.2735C32.065 24.4144 33.3367 20.8941 33.4325 17.2434C33.5283 13.5928 32.4429 10.0098 30.3401 7.03467L22.0498 16.4242L29.8091 27.2735Z" fill="#242424"/>
<path d="M39.7329 2.46997H42.6242V9.09615H42.7975L48.4104 2.46997H51.9028V2.64455L46.371 9.03302L52.5003 17.7503V17.9249H48.9636L44.4017 11.3433L42.6426 13.3935V17.9249H39.7513L39.7329 2.46997Z" fill="#242424"/>
<path d="M59.7728 16.8031H59.5995C59.2616 17.2138 58.8562 17.5631 58.4009 17.8357C57.8594 18.146 57.2421 18.2966 56.6197 18.2702C56.093 18.2718 55.5706 18.1761 55.0782 17.9879C54.6209 17.822 54.1991 17.5699 53.8354 17.2451C53.4793 16.9275 53.194 16.5377 52.9982 16.1011C52.7933 15.6334 52.6914 15.1266 52.6995 14.6154C52.6886 14.1016 52.7985 13.5925 53.0204 13.1297C53.2412 12.7085 53.5478 12.3389 53.9202 12.0452C54.3198 11.7223 54.7784 11.4813 55.2699 11.3358C55.8243 11.1582 56.4031 11.0705 56.9848 11.0758C57.5539 11.0626 58.1224 11.12 58.6775 11.2466C59.0537 11.3283 59.4235 11.4375 59.7839 11.5735V11.2466C59.7893 10.9801 59.7315 10.716 59.6154 10.4764C59.4993 10.2368 59.3283 10.0285 59.1164 9.86866C58.6526 9.48659 58.0667 9.28727 57.4679 9.30781C56.9908 9.30651 56.5199 9.41689 56.0924 9.63024C55.6649 9.84359 55.2924 10.1541 55.0044 10.5372L52.9687 9.13323C53.5097 8.44351 54.205 7.89249 54.9979 7.52519C55.7907 7.15788 56.6586 6.98471 57.5306 7.01983C59.1606 7.01983 60.4047 7.40735 61.2627 8.18239C62.1207 8.95742 62.5485 10.094 62.5461 11.5921V17.9397H59.7839L59.7728 16.8031ZM59.7728 13.6275C59.4436 13.4678 59.0988 13.3434 58.7439 13.256C58.3743 13.1514 57.9919 13.1001 57.608 13.1037C57.0506 13.0693 56.4984 13.2294 56.0444 13.5569C55.876 13.6811 55.7393 13.844 55.6457 14.0319C55.5521 14.2198 55.5042 14.4275 55.506 14.6377C55.5007 14.8394 55.5451 15.0392 55.6352 15.2194C55.7253 15.3995 55.8582 15.5545 56.0222 15.6703C56.3768 15.9294 56.8049 16.0662 57.2429 16.0603C57.5952 16.0647 57.9448 15.999 58.2719 15.8671C58.5668 15.7367 58.8355 15.5529 59.0647 15.3249C59.287 15.1045 59.4615 14.8402 59.5773 14.5486C59.7044 14.2582 59.7709 13.9447 59.7728 13.6275Z" fill="#242424"/>
<path d="M64.3975 7.35036H67.0343V8.72835H67.204C67.5376 8.20754 67.9936 7.77763 68.5316 7.47666C69.1108 7.15985 69.7607 6.99746 70.4198 7.00494C71.1322 6.97915 71.8353 7.17498 72.4333 7.56579C72.9461 7.90131 73.349 8.38201 73.5913 8.94747C73.9432 8.3904 74.4193 7.92366 74.9816 7.58436C75.5647 7.25383 76.2139 7.05923 76.8815 7.01487C77.5491 6.97052 78.218 7.07755 78.8391 7.32808C79.291 7.51251 79.6893 7.80892 79.9971 8.18978C80.3233 8.58915 80.5643 9.05191 80.7052 9.5492C80.8661 10.1028 80.9456 10.6772 80.9412 11.254V17.9396H78.1348V11.774C78.1348 10.3329 77.5484 9.61605 76.3757 9.61605C76.0303 9.60898 75.6897 9.69764 75.391 9.87234C75.096 10.0348 74.8433 10.2652 74.6534 10.5446C74.4529 10.8495 74.3011 11.1841 74.2035 11.5363C74.1019 11.9456 74.0524 12.3662 74.056 12.788V17.9248H71.2532V11.774C71.2532 10.3329 70.641 9.61605 69.4093 9.61605C69.0768 9.60929 68.7493 9.6982 68.4652 9.87234C68.186 10.0374 67.9507 10.2681 67.7793 10.5446C67.5804 10.8475 67.4356 11.1832 67.3515 11.5363C67.2474 11.9452 67.1953 12.3658 67.1966 12.788V17.9248H64.3901L64.3975 7.35036Z" fill="#242424"/>
<path d="M89.5596 16.8031H89.39C89.0498 17.213 88.6434 17.5621 88.1877 17.8357C87.648 18.147 87.0316 18.2977 86.4102 18.2702C85.8835 18.2721 85.361 18.1764 84.8687 17.9879C84.411 17.8228 83.9891 17.5706 83.6259 17.2451C83.2687 16.9286 82.9831 16.5385 82.7887 16.1011C82.5838 15.6334 82.4819 15.1266 82.49 14.6154C82.4791 14.1016 82.589 13.5925 82.8108 13.1297C83.0235 12.6863 83.3308 12.2957 83.7107 11.9858C84.1094 11.6614 84.5682 11.4202 85.0604 11.2763C85.6146 11.0982 86.1936 11.0105 86.7753 11.0163C87.3443 11.0032 87.9129 11.0606 88.468 11.1872C88.8444 11.2681 89.2142 11.3773 89.5744 11.514V11.1872C89.5796 10.921 89.5221 10.6574 89.4067 10.4179C89.2914 10.1784 89.1213 9.96982 88.9105 9.80921C88.4468 9.42714 87.8609 9.22782 87.2621 9.24836C86.7844 9.24677 86.3128 9.35701 85.8847 9.57036C85.4565 9.78371 85.0835 10.0944 84.7949 10.4778L82.7592 9.0738C83.3005 8.38356 83.9965 7.83223 84.79 7.4649C85.5835 7.09757 86.4521 6.92469 87.3248 6.96041C88.9548 6.96041 90.1976 7.34793 91.0532 8.12296C91.9087 8.89799 92.3378 10.0345 92.3403 11.5326V17.8802H89.5744L89.5596 16.8031ZM89.5596 13.6274C89.2304 13.4678 88.8856 13.3433 88.5307 13.256C88.1611 13.1514 87.7787 13.1001 87.3949 13.1037C86.8375 13.0699 86.2855 13.2299 85.8312 13.5569C85.6633 13.6813 85.5271 13.8443 85.4342 14.0322C85.3412 14.2202 85.294 14.4277 85.2964 14.6377C85.2908 14.839 85.3346 15.0386 85.4241 15.2188C85.5135 15.3989 85.6457 15.554 85.8091 15.6703C86.1636 15.9294 86.5918 16.0662 87.0298 16.0603C87.382 16.0647 87.7316 15.999 88.0586 15.8671C88.3542 15.7378 88.6232 15.5539 88.8515 15.3248C89.0749 15.1047 89.2507 14.8404 89.3678 14.5486C89.4937 14.258 89.559 13.9445 89.5596 13.6274Z" fill="#242424"/>
<path d="M94.3428 17.9249V2.46997H97.1492V17.9249H94.3428Z" fill="#242424"/>
<path d="M100.903 5.81643C100.661 5.81611 100.422 5.77209 100.195 5.68644C99.9783 5.5974 99.7813 5.46586 99.6154 5.29944C99.4495 5.13302 99.3182 4.93504 99.2289 4.71703C99.0617 4.25652 99.0617 3.75126 99.2289 3.29076C99.3242 3.08228 99.4553 2.8924 99.6162 2.72991C99.9621 2.39292 100.422 2.20047 100.903 2.19134C101.142 2.18792 101.38 2.23397 101.6 2.32661C101.821 2.41925 102.021 2.5565 102.187 2.72991C102.36 2.89222 102.498 3.08958 102.591 3.3091C102.683 3.52861 102.729 3.76535 102.725 4.00388C102.728 4.24554 102.682 4.48526 102.589 4.70821C102.497 4.93116 102.36 5.13264 102.187 5.30017C102.017 5.46765 101.817 5.59955 101.596 5.68818C101.376 5.77682 101.14 5.8204 100.903 5.81643ZM99.5092 17.9248V7.3504H102.316V17.9248H99.5092Z" fill="#242424"/>
<path d="M111.034 16.8031H110.864C110.525 17.2129 110.12 17.562 109.666 17.8356C109.124 18.146 108.507 18.2966 107.884 18.2702C107.358 18.2717 106.835 18.176 106.343 17.9879C105.886 17.8219 105.464 17.5698 105.1 17.2451C104.744 16.9275 104.459 16.5376 104.263 16.1011C104.058 15.6334 103.956 15.1265 103.964 14.6154C103.953 14.1016 104.063 13.5925 104.285 13.1297C104.505 12.7088 104.81 12.3392 105.181 12.0451C105.581 11.7223 106.039 11.4813 106.531 11.3357C107.085 11.1582 107.664 11.0704 108.246 11.0757C108.815 11.0626 109.383 11.12 109.938 11.2466C110.315 11.3275 110.685 11.4367 111.045 11.5734V11.2466C111.05 10.9804 110.993 10.7168 110.877 10.4773C110.762 10.2378 110.592 10.0292 110.381 9.86862C109.917 9.48655 109.331 9.28722 108.733 9.30776C108.255 9.30646 107.785 9.41684 107.357 9.6302C106.929 9.84355 106.557 10.154 106.269 10.5372L104.233 9.13318C104.773 8.4421 105.468 7.89009 106.261 7.52265C107.054 7.15521 107.923 6.98286 108.795 7.01979C110.425 7.01979 111.668 7.40731 112.524 8.18234C113.379 8.95738 113.808 10.094 113.811 11.592V17.9396H111.045L111.034 16.8031ZM111.034 13.6274C110.705 13.4678 110.36 13.3433 110.005 13.256C109.637 13.1513 109.255 13.1 108.873 13.1037C108.314 13.07 107.761 13.2299 107.305 13.5568C107.138 13.6819 107.002 13.845 106.909 14.0328C106.817 14.2206 106.769 14.4278 106.771 14.6377C106.765 14.8393 106.81 15.0392 106.9 15.2193C106.99 15.3995 107.123 15.5544 107.287 15.6702C107.641 15.9293 108.07 16.0661 108.508 16.0602C108.86 16.0643 109.209 15.9987 109.536 15.8671C109.831 15.7366 110.1 15.5528 110.329 15.3248C110.552 15.1045 110.726 14.8402 110.842 14.5485C110.968 14.258 111.033 13.9444 111.034 13.6274Z" fill="#242424"/>
<path d="M118.457 8.72845H118.627C118.953 8.19975 119.412 7.76777 119.958 7.47676C120.542 7.15462 121.199 6.99199 121.865 7.00505C122.458 6.99296 123.048 7.10291 123.598 7.32818C124.078 7.52755 124.5 7.84718 124.823 8.25674C125.168 8.67112 125.42 9.15664 125.56 9.67929C125.74 10.2738 125.827 10.8928 125.818 11.5141V17.9249H123.012V11.8595C123.062 11.2526 122.877 10.6497 122.496 10.177C122.306 9.97948 122.076 9.82674 121.82 9.72976C121.565 9.63278 121.292 9.59399 121.02 9.61616C120.661 9.60911 120.306 9.69751 119.992 9.87244C119.701 10.0415 119.45 10.2706 119.254 10.5447C119.039 10.8441 118.879 11.18 118.782 11.5364C118.679 11.9304 118.628 12.3362 118.631 12.7435V17.9434H115.824V7.35047H118.457V8.72845Z" fill="#242424"/>
<path d="M42.1191 31.0248C41.6583 31.0373 41.1999 30.9529 40.7732 30.777C40.3465 30.6012 39.9609 30.3377 39.6409 30.0034C38.9932 29.3064 38.6447 28.3801 38.671 27.4258C38.6549 26.9528 38.7324 26.4813 38.8989 26.0388C39.0655 25.5963 39.3177 25.1915 39.6409 24.8481C39.9612 24.5145 40.347 24.2517 40.7737 24.0765C41.2003 23.9013 41.6586 23.8175 42.1191 23.8304C42.7486 23.8143 43.3679 23.9916 43.8949 24.3385C44.4219 24.6855 44.8316 25.1858 45.0694 25.7729L43.9188 26.2558C43.783 25.869 43.527 25.5366 43.1889 25.3079C42.8508 25.0791 42.4486 24.966 42.0417 24.9855C41.7597 24.9881 41.4816 25.0525 41.2268 25.1744C40.972 25.2963 40.7467 25.4727 40.5666 25.6912C40.1684 26.1811 39.9508 26.7946 39.9508 27.4276C39.9508 28.0607 40.1684 28.6742 40.5666 29.164C40.7476 29.3813 40.9731 29.5566 41.2278 29.6778C41.4824 29.799 41.7601 29.8632 42.0417 29.866C42.4574 29.8883 42.8694 29.7774 43.2186 29.5492C43.5677 29.3209 43.8361 28.9872 43.9852 28.5958L45.0916 29.0786C44.8608 29.667 44.4534 30.1682 43.9262 30.5123C43.3871 30.8585 42.7585 31.0368 42.1191 31.0248Z" fill="#242424"/>
<path d="M45.6001 27.4258C45.5848 26.9527 45.663 26.4811 45.8301 26.0386C45.9972 25.5961 46.25 25.1914 46.5737 24.8482C46.8936 24.515 47.2788 24.2526 47.7048 24.0774C48.1308 23.9022 48.5883 23.8181 49.0483 23.8305C49.5069 23.816 49.9634 23.8991 50.3879 24.0745C50.8124 24.2498 51.1954 24.5135 51.5118 24.8482C52.1459 25.5548 52.497 26.4734 52.497 27.4258C52.497 28.3783 52.1459 29.2969 51.5118 30.0035C51.1956 30.3387 50.8127 30.6029 50.3882 30.7789C49.9637 30.9549 49.5072 31.0387 49.0483 31.0249C48.5881 31.0368 48.1304 30.9522 47.7044 30.7763C47.2783 30.6005 46.8933 30.3373 46.5737 30.0035C46.2496 29.6605 45.9967 29.2559 45.8295 28.8133C45.6623 28.3708 45.5844 27.8991 45.6001 27.4258ZM46.8614 27.4258C46.8314 28.0742 47.0567 28.7082 47.4884 29.1901C47.6892 29.4034 47.9311 29.5733 48.1993 29.6894C48.4675 29.8055 48.7564 29.8654 49.0483 29.8654C49.3402 29.8654 49.6291 29.8055 49.8973 29.6894C50.1655 29.5733 50.4074 29.4034 50.6083 29.1901C51.0156 28.6966 51.2385 28.075 51.2385 27.4333C51.2385 26.7915 51.0156 26.17 50.6083 25.6765C50.41 25.4587 50.1689 25.2849 49.9004 25.166C49.6318 25.047 49.3417 24.9856 49.0483 24.9856C48.755 24.9856 48.4648 25.047 48.1963 25.166C47.9277 25.2849 47.6867 25.4587 47.4884 25.6765C47.0586 26.1536 46.8333 26.7823 46.8614 27.4258Z" fill="#242424"/>
<path d="M53.3706 24.0496H54.5765V24.9856H54.6319C54.8424 24.6351 55.1448 24.3498 55.5059 24.161C55.8863 23.9448 56.3156 23.8309 56.7524 23.8305C57.0997 23.8075 57.4478 23.8596 57.7734 23.9832C58.0991 24.1069 58.3947 24.2992 58.6406 24.5473C59.1185 25.1018 59.3597 25.824 59.3117 26.5567V30.8021H58.0505V26.6421C58.0259 25.5403 57.4739 24.9881 56.3946 24.9856C56.1516 24.9837 55.9115 25.0388 55.6933 25.1464C55.475 25.2541 55.2846 25.4114 55.1371 25.6059C54.7971 26.0153 54.6174 26.5358 54.6319 27.0693V30.7835H53.3706V24.0496Z" fill="#242424"/>
<path d="M65.7211 28.93C65.7195 29.2211 65.649 29.5078 65.5156 29.7661C65.3823 30.0245 65.1898 30.2471 64.9541 30.4157C64.3994 30.8352 63.7185 31.0503 63.0253 31.0248C62.3924 31.0372 61.7709 30.8544 61.2441 30.5011C60.7414 30.1564 60.3554 29.6652 60.1377 29.0934L61.2441 28.6106C61.3879 28.9886 61.6346 29.3181 61.9558 29.5614C62.255 29.7645 62.6049 29.8787 62.9654 29.8912C63.326 29.9037 63.6828 29.8139 63.9952 29.632C64.1116 29.574 64.2107 29.4862 64.2826 29.3772C64.3545 29.2683 64.3966 29.1422 64.4046 29.0117C64.4046 28.5809 64.0763 28.2689 63.4199 28.0609L62.2693 27.7712C60.9638 27.4418 60.311 26.8079 60.311 25.8695C60.3014 25.5795 60.3639 25.2918 60.4927 25.0324C60.6215 24.7729 60.8125 24.55 61.0486 24.3838C61.6075 23.9885 62.2803 23.79 62.9626 23.8192C63.525 23.81 64.079 23.9579 64.5631 24.2463C65.0218 24.4988 65.38 24.9029 65.5773 25.3903L64.4709 25.8583C64.3413 25.5723 64.1189 25.3391 63.8403 25.1972C63.5492 25.0277 63.2176 24.9417 62.8815 24.9483C62.5677 24.9438 62.2592 25.0302 61.9927 25.1972C61.8843 25.2571 61.7933 25.3445 61.7286 25.4507C61.664 25.5568 61.6279 25.6781 61.6239 25.8026C61.6239 26.174 61.9927 26.4637 62.7044 26.6309L63.7186 26.8909C65.0536 27.2301 65.7211 27.9098 65.7211 28.93Z" fill="#242424"/>
<path d="M72.5583 30.802H71.356V29.8735H71.3007C71.0853 30.2263 70.7779 30.5128 70.4119 30.7017C69.915 30.9723 69.3473 31.0819 68.7863 31.0154C68.2252 30.949 67.6982 30.7097 67.2773 30.3303C66.8082 29.7656 66.5731 29.0407 66.6208 28.3061V24.0607H67.8784V28.2244C67.9079 29.3386 68.4574 29.8772 69.5342 29.8772C69.7763 29.8791 70.0156 29.8256 70.2341 29.7208C70.4526 29.6159 70.6446 29.4623 70.7955 29.2718C71.1344 28.853 71.3136 28.3261 71.3007 27.7861V24.0496H72.5583V30.802Z" fill="#242424"/>
<path d="M75.2136 20.9333V30.802H73.9561V20.9333H75.2136Z" fill="#242424"/>
<path d="M79.3331 30.9134C78.8288 30.9287 78.3383 30.7463 77.9649 30.4046C77.7817 30.218 77.6387 29.9953 77.5448 29.7506C77.4509 29.5058 77.4081 29.2442 77.4191 28.982V25.2084H76.2427V24.0495H77.4191V21.9807H78.6766V24.0495H80.3177V25.2084H78.6766V28.5511C78.6398 28.8821 78.7339 29.2144 78.9385 29.476C79.0972 29.6264 79.307 29.7101 79.5249 29.71C79.6215 29.7096 79.7178 29.6997 79.8125 29.6803C79.906 29.656 79.9973 29.6237 80.0854 29.5837L80.4837 30.698C80.1154 30.8363 79.7261 30.9092 79.3331 30.9134Z" fill="#242424"/>
<path d="M83.0763 21.7207C83.0777 21.8389 83.0551 21.9561 83.0101 22.0653C82.9651 22.1745 82.8985 22.2733 82.8145 22.3558C82.6468 22.5221 82.421 22.6153 82.1857 22.6153C81.9504 22.6153 81.7245 22.5221 81.5569 22.3558C81.4737 22.2726 81.4077 22.1737 81.3627 22.0647C81.3176 21.9557 81.2944 21.8388 81.2944 21.7207C81.2944 21.6026 81.3176 21.4857 81.3627 21.3767C81.4077 21.2677 81.4737 21.1688 81.5569 21.0856C81.6819 20.9613 81.8405 20.8769 82.0129 20.8431C82.1853 20.8092 82.3638 20.8273 82.526 20.8951C82.6882 20.9629 82.827 21.0774 82.9249 21.2243C83.0227 21.3711 83.0754 21.5438 83.0763 21.7207ZM82.8145 24.0495V30.802H81.5569V24.0495H82.8145Z" fill="#242424"/>
<path d="M84.3154 24.0496H85.5213V24.9856H85.5766C85.7884 24.636 86.0905 24.351 86.4507 24.161C86.8312 23.9453 87.2604 23.8314 87.6972 23.8305C88.0444 23.8075 88.3926 23.8596 88.7182 23.9832C89.0439 24.1069 89.3395 24.2992 89.5853 24.5473C90.0633 25.1018 90.3045 25.824 90.2565 26.5567V30.8021H88.9953V26.6421C88.9707 25.5403 88.4188 24.9881 87.3394 24.9856C87.0965 24.984 86.8565 25.0392 86.6383 25.1468C86.42 25.2545 86.2296 25.4116 86.0819 25.6059C85.7419 26.0153 85.5622 26.5358 85.5766 27.0693V30.7835H84.3154V24.0496Z" fill="#242424"/>
<path d="M94.5418 29.8734C94.829 29.8813 95.1143 29.8248 95.3771 29.7079C95.6399 29.591 95.8736 29.4166 96.0612 29.1975C96.4599 28.7 96.6774 28.0799 96.6774 27.4406C96.6774 26.8013 96.4599 26.1812 96.0612 25.6838C95.8712 25.4665 95.6374 25.2925 95.3754 25.1732C95.1134 25.054 94.8293 24.9924 94.5418 24.9924C94.2543 24.9924 93.9701 25.054 93.7081 25.1732C93.4462 25.2925 93.2124 25.4665 93.0224 25.6838C92.6021 26.1659 92.3816 26.7921 92.4065 27.4332C92.3782 28.0748 92.5991 28.7023 93.0224 29.1826C93.2094 29.4034 93.4426 29.5799 93.7053 29.6993C93.9679 29.8188 94.2536 29.8782 94.5418 29.8734ZM94.5012 34.0074C94.144 34.0113 93.7883 33.9599 93.4465 33.8551C93.1271 33.7694 92.8224 33.6354 92.543 33.4577C92.2837 33.2881 92.0522 33.0788 91.857 32.8374C91.6661 32.5979 91.5187 32.3263 91.4218 32.0351L92.6094 31.5411C92.741 31.9258 92.9901 32.2586 93.3211 32.492C93.6659 32.7376 94.0789 32.8675 94.5012 32.8634C94.7965 32.8808 95.092 32.8344 95.368 32.7275C95.6441 32.6205 95.8942 32.4553 96.1017 32.2431C96.5069 31.7706 96.7132 31.1578 96.677 30.5346V29.8734H96.6217C96.3757 30.2379 96.0403 30.5321 95.6481 30.7277C95.2402 30.9313 94.7905 31.0356 94.3352 31.0323C93.9069 31.0349 93.4831 30.9436 93.0934 30.7646C92.7036 30.5857 92.3572 30.3234 92.0783 29.996C91.4556 29.2919 91.122 28.3758 91.1452 27.4332C91.1213 26.4949 91.4552 25.5831 92.0783 24.8852C92.3562 24.5558 92.7021 24.2914 93.0919 24.1105C93.4818 23.9296 93.906 23.8365 94.3352 23.8378C94.792 23.8328 95.2429 23.9413 95.6481 24.1535C96.0417 24.3401 96.378 24.6301 96.6217 24.9929H96.677V24.057H97.8793V30.5197C97.9056 30.9855 97.8378 31.4518 97.68 31.8904C97.5222 32.329 97.2775 32.7308 96.961 33.0714C96.6336 33.3884 96.245 33.6344 95.8194 33.7942C95.3937 33.9539 94.9401 34.0239 94.4865 33.9999L94.5012 34.0074Z" fill="#242424"/>
</g>
</g>
<defs>
<clipPath id="clip0_526_1210">
<rect width="125.8" height="34" fill="white"/>
</clipPath>
</defs>
</svg>
