<svg width="180" height="53" viewBox="0 0 180 53" fill="none" xmlns="http://www.w3.org/2000/svg">
<path fill-rule="evenodd" clip-rule="evenodd" d="M45.8806 8.38487C41.4617 3.64836 35.327 0.533395 28.4667 0.0301244V28.0556H28.6174L45.8806 8.38487ZM25 -8.52932e-06C11.0623 0.777706 0 12.3261 0 26.4583C0 40.5904 11.0623 52.1388 25 52.9165V-8.52932e-06ZM28.4667 52.8864C34.7926 52.4223 40.5016 49.7375 44.8173 45.6084L32.6116 28.5475L28.4667 33.3529V52.8864ZM47.2507 42.942C50.8497 38.4174 53 32.6889 53 26.4583C53 20.7273 51.1808 15.4213 48.0884 11.0861L34.9478 25.861L47.2507 42.942Z" fill="#75BB61"/>
<path d="M63.088 6.19426H67.003V15.0973H67.235L74.833 6.19426H79.56V6.42626L72.049 15.0103L80.343 26.7263V26.9583H75.558L69.381 18.1133L67.003 20.8683V26.9583H63.088V6.19426Z" fill="black"/>
<path d="M90.2082 25.4503H89.9762C89.5316 25.9916 88.9902 26.4556 88.3522 26.8423C87.7336 27.2289 86.9312 27.4223 85.9452 27.4223C85.2106 27.4223 84.5146 27.2966 83.8572 27.0453C83.2192 26.8133 82.6586 26.4846 82.1752 26.0593C81.6919 25.6339 81.3149 25.1216 81.0442 24.5223C80.7736 23.9229 80.6382 23.2656 80.6382 22.5503C80.6382 21.8156 80.7832 21.1583 81.0732 20.5783C81.3632 19.9789 81.7692 19.4666 82.2912 19.0413C82.8132 18.6159 83.4222 18.2969 84.1182 18.0843C84.8336 17.8523 85.6069 17.7363 86.4382 17.7363C87.3662 17.7363 88.1299 17.8136 88.7292 17.9683C89.3286 18.1036 89.8216 18.2486 90.2082 18.4033V17.9683C90.2082 17.2143 89.9086 16.5956 89.3092 16.1123C88.7099 15.6096 87.9656 15.3583 87.0762 15.3583C85.7616 15.3583 84.6499 15.9093 83.7412 17.0113L80.9862 15.1263C82.4942 13.2316 84.5532 12.2843 87.1632 12.2843C89.3672 12.2843 91.0492 12.8063 92.2092 13.8503C93.3692 14.8749 93.9492 16.4023 93.9492 18.4323V26.9583H90.2082V25.4503ZM90.2082 21.1873C89.7636 20.9746 89.2996 20.8103 88.8162 20.6943C88.3522 20.5589 87.8399 20.4913 87.2792 20.4913C86.3706 20.4913 85.6649 20.6943 85.1622 21.1003C84.6789 21.4869 84.4372 21.9703 84.4372 22.5503C84.4372 23.1303 84.6692 23.5943 85.1332 23.9423C85.6166 24.2903 86.1676 24.4643 86.7862 24.4643C87.2889 24.4643 87.7529 24.3773 88.1782 24.2033C88.6036 24.0099 88.9612 23.7683 89.2512 23.4783C89.5606 23.1689 89.7926 22.8209 89.9472 22.4343C90.1212 22.0283 90.2082 21.6126 90.2082 21.1873Z" fill="black"/>
<path d="M96.6798 12.7483H100.247V14.6043H100.479C100.923 13.9083 101.523 13.3476 102.277 12.9223C103.05 12.4969 103.901 12.2843 104.829 12.2843C105.911 12.2843 106.82 12.5356 107.555 13.0383C108.289 13.5409 108.811 14.1596 109.121 14.8943C109.565 14.1789 110.194 13.5699 111.006 13.0673C111.818 12.5453 112.804 12.2843 113.964 12.2843C114.834 12.2843 115.588 12.4293 116.226 12.7193C116.864 12.9899 117.386 13.3766 117.792 13.8793C118.217 14.3819 118.536 14.9909 118.749 15.7063C118.961 16.4023 119.068 17.1659 119.068 17.9973V26.9583H115.269V18.6933C115.269 16.7599 114.476 15.7933 112.891 15.7933C112.388 15.7933 111.943 15.9093 111.557 16.1413C111.17 16.3539 110.841 16.6536 110.571 17.0403C110.319 17.4076 110.116 17.8523 109.962 18.3743C109.826 18.8963 109.759 19.4569 109.759 20.0563V26.9583H105.96V18.6933C105.96 16.7599 105.128 15.7933 103.466 15.7933C102.982 15.7933 102.557 15.9093 102.19 16.1413C101.822 16.3539 101.513 16.6536 101.262 17.0403C101.01 17.4076 100.817 17.8523 100.682 18.3743C100.546 18.8963 100.479 19.4569 100.479 20.0563V26.9583H96.6798V12.7483Z" fill="black"/>
<path d="M130.523 25.4503H130.291C129.846 25.9916 129.305 26.4556 128.667 26.8423C128.048 27.2289 127.246 27.4223 126.26 27.4223C125.525 27.4223 124.829 27.2966 124.172 27.0453C123.534 26.8133 122.973 26.4846 122.49 26.0593C122.006 25.6339 121.629 25.1216 121.359 24.5223C121.088 23.9229 120.953 23.2656 120.953 22.5503C120.953 21.8156 121.098 21.1583 121.388 20.5783C121.678 19.9789 122.084 19.4666 122.606 19.0413C123.128 18.6159 123.737 18.2969 124.433 18.0843C125.148 17.8523 125.921 17.7363 126.753 17.7363C127.681 17.7363 128.444 17.8136 129.044 17.9683C129.643 18.1036 130.136 18.2486 130.523 18.4033V17.9683C130.523 17.2143 130.223 16.5956 129.624 16.1123C129.024 15.6096 128.28 15.3583 127.391 15.3583C126.076 15.3583 124.964 15.9093 124.056 17.0113L121.301 15.1263C122.809 13.2316 124.868 12.2843 127.478 12.2843C129.682 12.2843 131.364 12.8063 132.524 13.8503C133.684 14.8749 134.264 16.4023 134.264 18.4323V26.9583H130.523V25.4503ZM130.523 21.1873C130.078 20.9746 129.614 20.8103 129.131 20.6943C128.667 20.5589 128.154 20.4913 127.594 20.4913C126.685 20.4913 125.979 20.6943 125.477 21.1003C124.993 21.4869 124.752 21.9703 124.752 22.5503C124.752 23.1303 124.984 23.5943 125.448 23.9423C125.931 24.2903 126.482 24.4643 127.101 24.4643C127.603 24.4643 128.067 24.3773 128.493 24.2033C128.918 24.0099 129.276 23.7683 129.566 23.4783C129.875 23.1689 130.107 22.8209 130.262 22.4343C130.436 22.0283 130.523 21.6126 130.523 21.1873Z" fill="black"/>
<path d="M136.994 26.9583V6.19426H140.793V26.9583H136.994Z" fill="black"/>
<path d="M145.873 10.6893C145.544 10.6893 145.225 10.6313 144.916 10.5153C144.626 10.3799 144.365 10.2059 144.133 9.99326C143.92 9.76126 143.746 9.50026 143.611 9.21026C143.495 8.92026 143.437 8.60126 143.437 8.25326C143.437 7.90526 143.495 7.58626 143.611 7.29626C143.746 7.00626 143.92 6.75493 144.133 6.54226C144.365 6.31026 144.626 6.13626 144.916 6.02026C145.225 5.88493 145.544 5.81726 145.873 5.81726C146.55 5.81726 147.13 6.05893 147.613 6.54226C148.096 7.00626 148.338 7.57659 148.338 8.25326C148.338 8.92993 148.096 9.50993 147.613 9.99326C147.13 10.4573 146.55 10.6893 145.873 10.6893ZM143.988 26.9583V12.7483H147.787V26.9583H143.988Z" fill="black"/>
<path d="M159.587 25.4503H159.355C158.911 25.9916 158.369 26.4556 157.731 26.8423C157.113 27.2289 156.31 27.4223 155.324 27.4223C154.59 27.4223 153.894 27.2966 153.236 27.0453C152.598 26.8133 152.038 26.4846 151.554 26.0593C151.071 25.6339 150.694 25.1216 150.423 24.5223C150.153 23.9229 150.017 23.2656 150.017 22.5503C150.017 21.8156 150.162 21.1583 150.452 20.5783C150.742 19.9789 151.148 19.4666 151.67 19.0413C152.192 18.6159 152.801 18.2969 153.497 18.0843C154.213 17.8523 154.986 17.7363 155.817 17.7363C156.745 17.7363 157.509 17.8136 158.108 17.9683C158.708 18.1036 159.201 18.2486 159.587 18.4033V17.9683C159.587 17.2143 159.288 16.5956 158.688 16.1123C158.089 15.6096 157.345 15.3583 156.455 15.3583C155.141 15.3583 154.029 15.9093 153.12 17.0113L150.365 15.1263C151.873 13.2316 153.932 12.2843 156.542 12.2843C158.746 12.2843 160.428 12.8063 161.588 13.8503C162.748 14.8749 163.328 16.4023 163.328 18.4323V26.9583H159.587V25.4503ZM159.587 21.1873C159.143 20.9746 158.679 20.8103 158.195 20.6943C157.731 20.5589 157.219 20.4913 156.658 20.4913C155.75 20.4913 155.044 20.6943 154.541 21.1003C154.058 21.4869 153.816 21.9703 153.816 22.5503C153.816 23.1303 154.048 23.5943 154.512 23.9423C154.996 24.2903 155.547 24.4643 156.165 24.4643C156.668 24.4643 157.132 24.3773 157.557 24.2033C157.983 24.0099 158.34 23.7683 158.63 23.4783C158.94 23.1689 159.172 22.8209 159.326 22.4343C159.5 22.0283 159.587 21.6126 159.587 21.1873Z" fill="black"/>
<path d="M169.626 14.6043H169.858C170.303 13.8889 170.902 13.3283 171.656 12.9223C172.41 12.4969 173.27 12.2843 174.237 12.2843C175.126 12.2843 175.909 12.4293 176.586 12.7193C177.263 13.0093 177.814 13.4249 178.239 13.9663C178.684 14.4883 179.012 15.1263 179.225 15.8803C179.457 16.6149 179.573 17.4366 179.573 18.3453V26.9583H175.774V18.8093C175.774 17.7846 175.542 17.0306 175.078 16.5473C174.633 16.0446 173.976 15.7933 173.106 15.7933C172.584 15.7933 172.12 15.9093 171.714 16.1413C171.327 16.3539 170.989 16.6536 170.699 17.0403C170.428 17.4076 170.216 17.8523 170.061 18.3743C169.926 18.8769 169.858 19.4183 169.858 19.9983V26.9583H166.059V12.7483H169.626V14.6043Z" fill="black"/>
<path d="M66.04 44.2463C64.732 44.2463 63.646 43.8023 62.782 42.9143C61.93 42.0023 61.504 40.8803 61.504 39.5483C61.504 38.1923 61.93 37.0703 62.782 36.1823C63.646 35.2943 64.732 34.8503 66.04 34.8503C66.94 34.8503 67.726 35.0783 68.398 35.5343C69.07 35.9783 69.574 36.5963 69.91 37.3883L68.398 38.0183C67.93 36.9143 67.108 36.3623 65.932 36.3623C65.176 36.3623 64.522 36.6683 63.97 37.2803C63.43 37.8923 63.16 38.6483 63.16 39.5483C63.16 40.4483 63.43 41.2043 63.97 41.8163C64.522 42.4283 65.176 42.7343 65.932 42.7343C67.144 42.7343 67.996 42.1823 68.488 41.0783L69.964 41.7083C69.64 42.5003 69.13 43.1243 68.434 43.5803C67.75 44.0243 66.952 44.2463 66.04 44.2463Z" fill="black"/>
<path d="M70.6404 39.5483C70.6404 38.1923 71.0664 37.0703 71.9184 36.1823C72.7824 35.2943 73.8684 34.8503 75.1764 34.8503C76.4844 34.8503 77.5644 35.2943 78.4164 36.1823C79.2804 37.0703 79.7124 38.1923 79.7124 39.5483C79.7124 40.9163 79.2804 42.0383 78.4164 42.9143C77.5644 43.8023 76.4844 44.2463 75.1764 44.2463C73.8684 44.2463 72.7824 43.8023 71.9184 42.9143C71.0664 42.0263 70.6404 40.9043 70.6404 39.5483ZM72.2964 39.5483C72.2964 40.4963 72.5724 41.2643 73.1244 41.8523C73.6764 42.4403 74.3604 42.7343 75.1764 42.7343C75.9924 42.7343 76.6764 42.4403 77.2284 41.8523C77.7804 41.2643 78.0564 40.4963 78.0564 39.5483C78.0564 38.6123 77.7804 37.8503 77.2284 37.2623C76.6644 36.6623 75.9804 36.3623 75.1764 36.3623C74.3724 36.3623 73.6884 36.6623 73.1244 37.2623C72.5724 37.8503 72.2964 38.6123 72.2964 39.5483Z" fill="black"/>
<path d="M80.8609 35.1383H82.4449V36.3623H82.5169C82.7689 35.9303 83.1529 35.5703 83.6689 35.2823C84.1969 34.9943 84.7429 34.8503 85.3069 34.8503C86.3869 34.8503 87.2149 35.1623 87.7909 35.7863C88.3789 36.3983 88.6729 37.2743 88.6729 38.4143V43.9583H87.0169V38.5223C86.9809 37.0823 86.2549 36.3623 84.8389 36.3623C84.1789 36.3623 83.6269 36.6323 83.1829 37.1723C82.7389 37.7003 82.5169 38.3363 82.5169 39.0803V43.9583H80.8609V35.1383Z" fill="black"/>
<path d="M97.0989 41.5103C97.0989 42.2783 96.7629 42.9263 96.0909 43.4543C95.4189 43.9823 94.5729 44.2463 93.5529 44.2463C92.6649 44.2463 91.8849 44.0183 91.2129 43.5623C90.5409 43.0943 90.0609 42.4823 89.7729 41.7263L91.2489 41.0963C91.4649 41.6243 91.7769 42.0383 92.1849 42.3383C92.6049 42.6263 93.0609 42.7703 93.5529 42.7703C94.0809 42.7703 94.5189 42.6563 94.8669 42.4283C95.2269 42.2003 95.4069 41.9303 95.4069 41.6183C95.4069 41.0543 94.9749 40.6403 94.1109 40.3763L92.5989 39.9983C90.8829 39.5663 90.0249 38.7383 90.0249 37.5143C90.0249 36.7103 90.3489 36.0683 90.9969 35.5883C91.6569 35.0963 92.4969 34.8503 93.5169 34.8503C94.2969 34.8503 94.9989 35.0363 95.6229 35.4083C96.2589 35.7803 96.7029 36.2783 96.9549 36.9023L95.4789 37.5143C95.3109 37.1423 95.0349 36.8543 94.6509 36.6503C94.2789 36.4343 93.8589 36.3263 93.3909 36.3263C92.9589 36.3263 92.5689 36.4343 92.2209 36.6503C91.8849 36.8663 91.7169 37.1303 91.7169 37.4423C91.7169 37.9463 92.1909 38.3063 93.1389 38.5223L94.4709 38.8643C96.2229 39.2963 97.0989 40.1783 97.0989 41.5103Z" fill="black"/>
<path d="M106.1 43.9583H104.516V42.7343H104.444C104.192 43.1663 103.802 43.5263 103.274 43.8143C102.758 44.1023 102.218 44.2463 101.654 44.2463C100.574 44.2463 99.7403 43.9403 99.1523 43.3283C98.5763 42.7043 98.2883 41.8223 98.2883 40.6823V35.1383H99.9443V40.5743C99.9803 42.0143 100.706 42.7343 102.122 42.7343C102.782 42.7343 103.334 42.4703 103.778 41.9423C104.222 41.4023 104.444 40.7603 104.444 40.0163V35.1383H106.1V43.9583Z" fill="black"/>
<path d="M109.592 31.0703V43.9583H107.936V31.0703H109.592Z" fill="black"/>
<path d="M115.01 44.1023C114.29 44.1023 113.69 43.8803 113.21 43.4363C112.742 42.9923 112.502 42.3743 112.49 41.5823V36.6503H110.942V35.1383H112.49V32.4383H114.146V35.1383H116.306V36.6503H114.146V41.0423C114.146 41.6303 114.26 42.0323 114.488 42.2483C114.716 42.4523 114.974 42.5543 115.262 42.5543C115.394 42.5543 115.52 42.5423 115.64 42.5183C115.772 42.4823 115.892 42.4403 116 42.3923L116.522 43.8683C116.09 44.0243 115.586 44.1023 115.01 44.1023Z" fill="black"/>
<path d="M119.931 32.0963C119.931 32.4203 119.817 32.6963 119.589 32.9243C119.361 33.1523 119.085 33.2663 118.761 33.2663C118.437 33.2663 118.161 33.1523 117.933 32.9243C117.705 32.6963 117.591 32.4203 117.591 32.0963C117.591 31.7723 117.705 31.4963 117.933 31.2683C118.161 31.0403 118.437 30.9263 118.761 30.9263C119.085 30.9263 119.361 31.0403 119.589 31.2683C119.817 31.4963 119.931 31.7723 119.931 32.0963ZM119.589 35.1383V43.9583H117.933V35.1383H119.589Z" fill="black"/>
<path d="M121.564 35.1383H123.148V36.3623H123.22C123.472 35.9303 123.856 35.5703 124.372 35.2823C124.9 34.9943 125.446 34.8503 126.01 34.8503C127.09 34.8503 127.918 35.1623 128.494 35.7863C129.082 36.3983 129.376 37.2743 129.376 38.4143V43.9583H127.72V38.5223C127.684 37.0823 126.958 36.3623 125.542 36.3623C124.882 36.3623 124.33 36.6323 123.886 37.1723C123.442 37.7003 123.22 38.3363 123.22 39.0803V43.9583H121.564V35.1383Z" fill="black"/>
<path d="M135.012 42.7343C135.828 42.7343 136.494 42.4403 137.01 41.8523C137.55 41.2643 137.82 40.4963 137.82 39.5483C137.82 38.6243 137.55 37.8623 137.01 37.2623C136.482 36.6623 135.816 36.3623 135.012 36.3623C134.22 36.3623 133.554 36.6623 133.014 37.2623C132.474 37.8623 132.204 38.6243 132.204 39.5483C132.204 40.4843 132.474 41.2463 133.014 41.8343C133.554 42.4343 134.22 42.7343 135.012 42.7343ZM134.958 48.1343C134.466 48.1343 134.004 48.0683 133.572 47.9363C133.14 47.8163 132.744 47.6423 132.384 47.4143C132.036 47.1863 131.736 46.9163 131.484 46.6043C131.232 46.2923 131.04 45.9443 130.908 45.5603L132.474 44.9123C132.654 45.4283 132.966 45.8423 133.41 46.1543C133.854 46.4663 134.37 46.6223 134.958 46.6223C135.858 46.6223 136.56 46.3523 137.064 45.8123C137.568 45.2723 137.82 44.5283 137.82 43.5803V42.7343H137.748C137.436 43.2023 137.01 43.5743 136.47 43.8503C135.942 44.1143 135.366 44.2463 134.742 44.2463C133.59 44.2463 132.6 43.7963 131.772 42.8963C130.956 41.9723 130.548 40.8563 130.548 39.5483C130.548 38.2403 130.956 37.1303 131.772 36.2183C132.6 35.3063 133.59 34.8503 134.742 34.8503C135.366 34.8503 135.942 34.9883 136.47 35.2643C137.01 35.5283 137.436 35.8943 137.748 36.3623H137.82V35.1383H139.404V43.5803C139.404 44.9963 139.002 46.1063 138.198 46.9103C137.382 47.7263 136.302 48.1343 134.958 48.1343Z" fill="black"/>
</svg>
