<svg width="126" height="34" viewBox="0 0 126 34" fill="none" xmlns="http://www.w3.org/2000/svg">
<g opacity="0.8">
<g clip-path="url(#clip0_526_1300)">
<path fill-rule="evenodd" clip-rule="evenodd" d="M28.946 5.32617C26.08 2.22436 22.1556 0.32843 17.9598 0.0185547V17.8245H18.0557L28.946 5.32617Z" fill="#242424"/>
<path fill-rule="evenodd" clip-rule="evenodd" d="M15.7758 0C11.5095 0.239066 7.49602 2.11436 4.55977 5.24072C1.62352 8.36708 -0.0126343 12.5072 -0.0126343 16.8106C-0.0126343 21.114 1.62352 25.2541 4.55977 28.3804C7.49602 31.5068 11.5095 33.3821 15.7758 33.6211V0Z" fill="#242424"/>
<path fill-rule="evenodd" clip-rule="evenodd" d="M17.9598 33.5876C21.8313 33.3035 25.4831 31.6682 28.2858 28.9634L20.5856 18.1216L17.9709 21.1747L17.9598 33.5876Z" fill="#242424"/>
<path fill-rule="evenodd" clip-rule="evenodd" d="M29.8089 27.2735C32.0648 24.4144 33.3366 20.8941 33.4324 17.2434C33.5282 13.5928 32.4428 10.0098 30.34 7.03467L22.0497 16.4242L29.8089 27.2735Z" fill="#242424"/>
<path d="M39.7329 2.46997H42.6242V9.09615H42.7975L48.4104 2.46997H51.9028V2.64455L46.371 9.03302L52.5003 17.7503V17.9249H48.9636L44.4017 11.3433L42.6426 13.3935V17.9249H39.7513L39.7329 2.46997Z" fill="#242424"/>
<path d="M59.7728 16.8031H59.5995C59.2616 17.2138 58.8562 17.5631 58.4009 17.8357C57.8594 18.146 57.2421 18.2966 56.6197 18.2702C56.093 18.2718 55.5706 18.1761 55.0782 17.9879C54.6209 17.822 54.1991 17.5699 53.8354 17.2451C53.4793 16.9275 53.194 16.5377 52.9982 16.1011C52.7933 15.6334 52.6914 15.1266 52.6995 14.6154C52.6886 14.1016 52.7985 13.5925 53.0204 13.1297C53.2412 12.7085 53.5478 12.3389 53.9202 12.0452C54.3198 11.7223 54.7784 11.4813 55.2699 11.3358C55.8243 11.1582 56.4031 11.0705 56.9848 11.0758C57.5539 11.0626 58.1224 11.12 58.6775 11.2466C59.0537 11.3283 59.4235 11.4375 59.7839 11.5735V11.2466C59.7893 10.9801 59.7315 10.716 59.6154 10.4764C59.4993 10.2368 59.3283 10.0285 59.1164 9.86866C58.6526 9.48659 58.0667 9.28727 57.4679 9.30781C56.9908 9.30651 56.5199 9.41689 56.0924 9.63024C55.6649 9.84359 55.2924 10.1541 55.0044 10.5372L52.9687 9.13323C53.5097 8.44351 54.205 7.89249 54.9979 7.52519C55.7907 7.15788 56.6586 6.98471 57.5306 7.01983C59.1606 7.01983 60.4047 7.40735 61.2627 8.18239C62.1207 8.95742 62.5485 10.094 62.5461 11.5921V17.9397H59.7839L59.7728 16.8031ZM59.7728 13.6275C59.4436 13.4678 59.0988 13.3434 58.7439 13.256C58.3743 13.1514 57.9919 13.1001 57.608 13.1037C57.0506 13.0693 56.4984 13.2294 56.0444 13.5569C55.876 13.6811 55.7393 13.844 55.6457 14.0319C55.5521 14.2198 55.5042 14.4275 55.506 14.6377C55.5007 14.8394 55.5451 15.0392 55.6352 15.2194C55.7253 15.3995 55.8582 15.5545 56.0222 15.6703C56.3768 15.9294 56.8049 16.0662 57.2429 16.0603C57.5952 16.0647 57.9448 15.999 58.2719 15.8671C58.5668 15.7367 58.8355 15.5529 59.0647 15.3249C59.287 15.1045 59.4615 14.8402 59.5773 14.5486C59.7044 14.2582 59.7709 13.9447 59.7728 13.6275Z" fill="#242424"/>
<path d="M64.3973 7.35036H67.0341V8.72835H67.2037C67.5374 8.20754 67.9934 7.77763 68.5313 7.47666C69.1105 7.15985 69.7605 6.99746 70.4195 7.00494C71.132 6.97915 71.835 7.17498 72.4331 7.56579C72.9459 7.90131 73.3488 8.38201 73.5911 8.94747C73.943 8.3904 74.419 7.92366 74.9814 7.58436C75.5644 7.25383 76.2136 7.05923 76.8812 7.01487C77.5488 6.97052 78.2178 7.07755 78.8389 7.32808C79.2908 7.51251 79.6891 7.80892 79.9969 8.18978C80.323 8.58915 80.5641 9.05191 80.7049 9.5492C80.8658 10.1028 80.9453 10.6772 80.941 11.254V17.9396H78.1345V11.774C78.1345 10.3329 77.5482 9.61605 76.3754 9.61605C76.0301 9.60898 75.6894 9.69764 75.3907 9.87234C75.0958 10.0348 74.843 10.2652 74.6532 10.5446C74.4527 10.8495 74.3009 11.1841 74.2033 11.5363C74.1017 11.9456 74.0521 12.3662 74.0557 12.788V17.9248H71.253V11.774C71.253 10.3329 70.6408 9.61605 69.4091 9.61605C69.0766 9.60929 68.749 9.6982 68.4649 9.87234C68.1858 10.0374 67.9505 10.2681 67.779 10.5446C67.5801 10.8475 67.4354 11.1832 67.3512 11.5363C67.2472 11.9452 67.1951 12.3658 67.1963 12.788V17.9248H64.3899L64.3973 7.35036Z" fill="#242424"/>
<path d="M89.5595 16.8031H89.3899C89.0497 17.213 88.6432 17.5621 88.1876 17.8357C87.6479 18.147 87.0315 18.2977 86.4101 18.2702C85.8834 18.2721 85.3609 18.1764 84.8686 17.9879C84.4109 17.8228 83.989 17.5706 83.6258 17.2451C83.2685 16.9286 82.983 16.5385 82.7886 16.1011C82.5837 15.6334 82.4818 15.1266 82.4899 14.6154C82.479 14.1016 82.5889 13.5925 82.8107 13.1297C83.0233 12.6863 83.3306 12.2957 83.7106 11.9858C84.1093 11.6614 84.5681 11.4202 85.0603 11.2763C85.6145 11.0982 86.1934 11.0105 86.7752 11.0163C87.3442 11.0032 87.9127 11.0606 88.4679 11.1872C88.8443 11.2681 89.2141 11.3773 89.5743 11.514V11.1872C89.5795 10.921 89.522 10.6574 89.4066 10.4179C89.2912 10.1784 89.1212 9.96982 88.9104 9.80921C88.4466 9.42714 87.8608 9.22782 87.262 9.24836C86.7843 9.24677 86.3127 9.35701 85.8846 9.57036C85.4564 9.78371 85.0833 10.0944 84.7948 10.4778L82.7591 9.0738C83.3004 8.38356 83.9963 7.83223 84.7899 7.4649C85.5834 7.09757 86.452 6.92469 87.3246 6.96041C88.9547 6.96041 90.1975 7.34793 91.053 8.12296C91.9086 8.89799 92.3377 10.0345 92.3401 11.5326V17.8802H89.5743L89.5595 16.8031ZM89.5595 13.6274C89.2303 13.4678 88.8855 13.3433 88.5306 13.256C88.161 13.1514 87.7786 13.1001 87.3947 13.1037C86.8374 13.0699 86.2854 13.2299 85.8311 13.5569C85.6631 13.6813 85.527 13.8443 85.434 14.0322C85.341 14.2202 85.2938 14.4277 85.2963 14.6377C85.2907 14.839 85.3345 15.0386 85.4239 15.2188C85.5134 15.3989 85.6456 15.554 85.8089 15.6703C86.1635 15.9294 86.5916 16.0662 87.0296 16.0603C87.3819 16.0647 87.7315 15.999 88.0585 15.8671C88.3541 15.7378 88.623 15.5539 88.8514 15.3248C89.0748 15.1047 89.2506 14.8404 89.3677 14.5486C89.4936 14.258 89.5589 13.9445 89.5595 13.6274Z" fill="#242424"/>
<path d="M94.3427 17.9249V2.46997H97.1491V17.9249H94.3427Z" fill="#242424"/>
<path d="M100.903 5.81643C100.662 5.81611 100.422 5.77209 100.195 5.68644C99.9785 5.5974 99.7814 5.46586 99.6155 5.29944C99.4497 5.13302 99.3183 4.93504 99.2291 4.71703C99.0618 4.25652 99.0618 3.75126 99.2291 3.29076C99.3243 3.08228 99.4554 2.8924 99.6163 2.72991C99.9623 2.39292 100.422 2.20047 100.903 2.19134C101.142 2.18792 101.38 2.23397 101.6 2.32661C101.821 2.41925 102.021 2.5565 102.187 2.72991C102.36 2.89222 102.498 3.08958 102.591 3.3091C102.684 3.52861 102.729 3.76535 102.725 4.00388C102.728 4.24554 102.682 4.48526 102.589 4.70821C102.497 4.93116 102.36 5.13264 102.187 5.30017C102.017 5.46765 101.817 5.59955 101.597 5.68818C101.376 5.77682 101.141 5.8204 100.903 5.81643ZM99.5093 17.9248V7.3504H102.316V17.9248H99.5093Z" fill="#242424"/>
<path d="M111.034 16.8031H110.864C110.525 17.2129 110.12 17.562 109.666 17.8356C109.124 18.146 108.507 18.2966 107.884 18.2702C107.358 18.2717 106.835 18.176 106.343 17.9879C105.886 17.8219 105.464 17.5698 105.1 17.2451C104.744 16.9275 104.459 16.5376 104.263 16.1011C104.058 15.6334 103.956 15.1265 103.964 14.6154C103.953 14.1016 104.063 13.5925 104.285 13.1297C104.505 12.7088 104.81 12.3392 105.181 12.0451C105.581 11.7223 106.039 11.4813 106.531 11.3357C107.085 11.1582 107.664 11.0704 108.246 11.0757C108.815 11.0626 109.383 11.12 109.939 11.2466C110.315 11.3275 110.685 11.4367 111.045 11.5734V11.2466C111.05 10.9804 110.993 10.7168 110.877 10.4773C110.762 10.2378 110.592 10.0292 110.381 9.86862C109.917 9.48655 109.331 9.28722 108.733 9.30776C108.256 9.30646 107.785 9.41684 107.357 9.6302C106.93 9.84355 106.557 10.154 106.269 10.5372L104.233 9.13318C104.773 8.4421 105.468 7.89009 106.261 7.52265C107.055 7.15521 107.923 6.98286 108.795 7.01979C110.425 7.01979 111.668 7.40731 112.524 8.18234C113.379 8.95738 113.808 10.094 113.811 11.592V17.9396H111.045L111.034 16.8031ZM111.034 13.6274C110.705 13.4678 110.36 13.3433 110.005 13.256C109.637 13.1513 109.255 13.1 108.873 13.1037C108.314 13.07 107.761 13.2299 107.305 13.5568C107.138 13.6819 107.003 13.845 106.91 14.0328C106.817 14.2206 106.769 14.4278 106.771 14.6377C106.765 14.8393 106.81 15.0392 106.9 15.2193C106.99 15.3995 107.123 15.5544 107.287 15.6702C107.642 15.9293 108.07 16.0661 108.508 16.0602C108.86 16.0643 109.21 15.9987 109.537 15.8671C109.832 15.7366 110.1 15.5528 110.329 15.3248C110.552 15.1045 110.726 14.8402 110.842 14.5485C110.968 14.258 111.033 13.9444 111.034 13.6274Z" fill="#242424"/>
<path d="M118.457 8.72845H118.627C118.953 8.19975 119.412 7.76777 119.958 7.47676C120.542 7.15462 121.2 6.99199 121.865 7.00505C122.459 6.99296 123.048 7.10291 123.598 7.32818C124.078 7.52755 124.5 7.84718 124.823 8.25674C125.169 8.67112 125.42 9.15664 125.56 9.67929C125.74 10.2738 125.827 10.8928 125.818 11.5141V17.9249H123.012V11.8595C123.062 11.2526 122.877 10.6497 122.496 10.177C122.306 9.97948 122.076 9.82674 121.821 9.72976C121.566 9.63278 121.292 9.59399 121.021 9.61616C120.661 9.60911 120.306 9.69751 119.992 9.87244C119.701 10.0415 119.45 10.2706 119.254 10.5447C119.039 10.8441 118.879 11.18 118.782 11.5364C118.679 11.9304 118.628 12.3362 118.631 12.7435V17.9434H115.824V7.35047H118.457V8.72845Z" fill="#242424"/>
<path d="M42.1189 31.0248C41.658 31.0373 41.1996 30.9529 40.773 30.777C40.3463 30.6012 39.9607 30.3377 39.6407 30.0034C38.993 29.3064 38.6444 28.3801 38.6708 27.4258C38.6547 26.9528 38.7322 26.4813 38.8987 26.0388C39.0652 25.5963 39.3174 25.1915 39.6407 24.8481C39.961 24.5145 40.3467 24.2517 40.7734 24.0765C41.2001 23.9013 41.6583 23.8175 42.1189 23.8304C42.7483 23.8143 43.3677 23.9916 43.8947 24.3385C44.4217 24.6855 44.8313 25.1858 45.0692 25.7729L43.9186 26.2558C43.7827 25.869 43.5268 25.5366 43.1887 25.3079C42.8506 25.0791 42.4483 24.966 42.0415 24.9855C41.7594 24.9881 41.4813 25.0525 41.2266 25.1744C40.9718 25.2963 40.7465 25.4727 40.5663 25.6912C40.1682 26.1811 39.9506 26.7946 39.9506 27.4276C39.9506 28.0607 40.1682 28.6742 40.5663 29.164C40.7473 29.3813 40.9729 29.5566 41.2275 29.6778C41.4821 29.799 41.7599 29.8632 42.0415 29.866C42.4571 29.8883 42.8691 29.7774 43.2183 29.5492C43.5675 29.3209 43.8359 28.9872 43.985 28.5958L45.0913 29.0786C44.8606 29.667 44.4531 30.1682 43.926 30.5123C43.3868 30.8585 42.7582 31.0368 42.1189 31.0248Z" fill="#242424"/>
<path d="M45.6003 27.4258C45.5849 26.9527 45.6631 26.4811 45.8302 26.0386C45.9973 25.5961 46.2501 25.1914 46.5739 24.8482C46.8938 24.515 47.2789 24.2526 47.7049 24.0774C48.1309 23.9022 48.5885 23.8181 49.0484 23.8305C49.507 23.816 49.9635 23.8991 50.388 24.0745C50.8125 24.2498 51.1955 24.5135 51.5119 24.8482C52.146 25.5548 52.4971 26.4734 52.4971 27.4258C52.4971 28.3783 52.146 29.2969 51.5119 30.0035C51.1957 30.3387 50.8128 30.6029 50.3883 30.7789C49.9638 30.9549 49.5073 31.0387 49.0484 31.0249C48.5882 31.0368 48.1305 30.9522 47.7045 30.7763C47.2785 30.6005 46.8934 30.3373 46.5739 30.0035C46.2498 29.6605 45.9968 29.2559 45.8296 28.8133C45.6625 28.3708 45.5845 27.8991 45.6003 27.4258ZM46.8615 27.4258C46.8315 28.0742 47.0568 28.7082 47.4885 29.1901C47.6894 29.4034 47.9313 29.5733 48.1994 29.6894C48.4676 29.8055 48.7565 29.8654 49.0484 29.8654C49.3404 29.8654 49.6292 29.8055 49.8974 29.6894C50.1656 29.5733 50.4075 29.4034 50.6084 29.1901C51.0157 28.6966 51.2386 28.075 51.2386 27.4333C51.2386 26.7915 51.0157 26.17 50.6084 25.6765C50.4101 25.4587 50.169 25.2849 49.9005 25.166C49.6319 25.047 49.3418 24.9856 49.0484 24.9856C48.7551 24.9856 48.4649 25.047 48.1964 25.166C47.9278 25.2849 47.6868 25.4587 47.4885 25.6765C47.0588 26.1536 46.8334 26.7823 46.8615 27.4258Z" fill="#242424"/>
<path d="M53.3706 24.0496H54.5765V24.9856H54.6319C54.8424 24.6351 55.1448 24.3498 55.5059 24.161C55.8863 23.9448 56.3156 23.8309 56.7524 23.8305C57.0997 23.8075 57.4478 23.8596 57.7734 23.9832C58.0991 24.1069 58.3947 24.2992 58.6406 24.5473C59.1185 25.1018 59.3597 25.824 59.3117 26.5567V30.8021H58.0505V26.6421C58.0259 25.5403 57.4739 24.9881 56.3946 24.9856C56.1516 24.9837 55.9115 25.0388 55.6933 25.1464C55.475 25.2541 55.2846 25.4114 55.1371 25.6059C54.7971 26.0153 54.6174 26.5358 54.6319 27.0693V30.7835H53.3706V24.0496Z" fill="#242424"/>
<path d="M65.7212 28.93C65.7196 29.2211 65.6492 29.5078 65.5158 29.7661C65.3824 30.0245 65.1899 30.2471 64.9542 30.4157C64.3995 30.8352 63.7186 31.0503 63.0254 31.0248C62.3925 31.0372 61.771 30.8544 61.2442 30.5011C60.7416 30.1564 60.3555 29.6652 60.1378 29.0934L61.2442 28.6106C61.388 28.9886 61.6347 29.3181 61.9559 29.5614C62.2552 29.7645 62.605 29.8787 62.9656 29.8912C63.3261 29.9037 63.683 29.8139 63.9953 29.632C64.1117 29.574 64.2109 29.4862 64.2827 29.3772C64.3546 29.2683 64.3967 29.1422 64.4047 29.0117C64.4047 28.5809 64.0765 28.2689 63.42 28.0609L62.2694 27.7712C60.9639 27.4418 60.3111 26.8079 60.3111 25.8695C60.3015 25.5795 60.364 25.2918 60.4928 25.0324C60.6216 24.7729 60.8127 24.55 61.0487 24.3838C61.6076 23.9885 62.2804 23.79 62.9627 23.8192C63.5252 23.81 64.0791 23.9579 64.5632 24.2463C65.0219 24.4988 65.3801 24.9029 65.5774 25.3903L64.471 25.8583C64.3414 25.5723 64.119 25.3391 63.8404 25.1972C63.5493 25.0277 63.2178 24.9417 62.8816 24.9483C62.5678 24.9438 62.2593 25.0302 61.9928 25.1972C61.8844 25.2571 61.7934 25.3445 61.7287 25.4507C61.6641 25.5568 61.628 25.6781 61.624 25.8026C61.624 26.174 61.9928 26.4637 62.7045 26.6309L63.7187 26.8909C65.0537 27.2301 65.7212 27.9098 65.7212 28.93Z" fill="#242424"/>
<path d="M72.5585 30.802H71.3563V29.8735H71.301C71.0856 30.2263 70.7781 30.5128 70.4122 30.7017C69.9153 30.9723 69.3475 31.0819 68.7865 31.0154C68.2255 30.949 67.6985 30.7097 67.2775 30.3303C66.8085 29.7656 66.5734 29.0407 66.621 28.3061V24.0607H67.8786V28.2244C67.9081 29.3386 68.4576 29.8772 69.5345 29.8772C69.7765 29.8791 70.0159 29.8256 70.2344 29.7208C70.4529 29.6159 70.6448 29.4623 70.7957 29.2718C71.1346 28.853 71.3138 28.3261 71.301 27.7861V24.0496H72.5585V30.802Z" fill="#242424"/>
<path d="M75.2138 20.9333V30.802H73.9562V20.9333H75.2138Z" fill="#242424"/>
<path d="M79.3331 30.9134C78.8288 30.9287 78.3383 30.7463 77.9649 30.4046C77.7817 30.218 77.6387 29.9953 77.5448 29.7506C77.4509 29.5058 77.4081 29.2442 77.4191 28.982V25.2084H76.2427V24.0495H77.4191V21.9807H78.6766V24.0495H80.3177V25.2084H78.6766V28.5511C78.6398 28.8821 78.7339 29.2144 78.9385 29.476C79.0972 29.6264 79.307 29.7101 79.5249 29.71C79.6215 29.7096 79.7178 29.6997 79.8125 29.6803C79.906 29.656 79.9973 29.6237 80.0854 29.5837L80.4837 30.698C80.1154 30.8363 79.7261 30.9092 79.3331 30.9134Z" fill="#242424"/>
<path d="M83.0763 21.7207C83.0777 21.8389 83.0551 21.9561 83.0101 22.0653C82.9651 22.1745 82.8985 22.2733 82.8145 22.3558C82.6468 22.5221 82.421 22.6153 82.1857 22.6153C81.9504 22.6153 81.7245 22.5221 81.5569 22.3558C81.4737 22.2726 81.4077 22.1737 81.3627 22.0647C81.3176 21.9557 81.2944 21.8388 81.2944 21.7207C81.2944 21.6026 81.3176 21.4857 81.3627 21.3767C81.4077 21.2677 81.4737 21.1688 81.5569 21.0856C81.6819 20.9613 81.8405 20.8769 82.0129 20.8431C82.1853 20.8092 82.3638 20.8273 82.526 20.8951C82.6882 20.9629 82.827 21.0774 82.9249 21.2243C83.0227 21.3711 83.0754 21.5438 83.0763 21.7207ZM82.8145 24.0495V30.802H81.5569V24.0495H82.8145Z" fill="#242424"/>
<path d="M84.3154 24.0496H85.5213V24.9856H85.5766C85.7884 24.636 86.0905 24.351 86.4507 24.161C86.8312 23.9453 87.2604 23.8314 87.6972 23.8305C88.0444 23.8075 88.3926 23.8596 88.7182 23.9832C89.0439 24.1069 89.3395 24.2992 89.5853 24.5473C90.0633 25.1018 90.3045 25.824 90.2565 26.5567V30.8021H88.9953V26.6421C88.9707 25.5403 88.4188 24.9881 87.3394 24.9856C87.0965 24.984 86.8565 25.0392 86.6383 25.1468C86.42 25.2545 86.2296 25.4116 86.0819 25.6059C85.7419 26.0153 85.5622 26.5358 85.5766 27.0693V30.7835H84.3154V24.0496Z" fill="#242424"/>
<path d="M94.5418 29.8734C94.829 29.8813 95.1143 29.8248 95.3771 29.7079C95.6399 29.591 95.8736 29.4166 96.0612 29.1975C96.4599 28.7 96.6774 28.0799 96.6774 27.4406C96.6774 26.8013 96.4599 26.1812 96.0612 25.6838C95.8712 25.4665 95.6374 25.2925 95.3754 25.1732C95.1134 25.054 94.8293 24.9924 94.5418 24.9924C94.2543 24.9924 93.9701 25.054 93.7081 25.1732C93.4462 25.2925 93.2124 25.4665 93.0224 25.6838C92.6021 26.1659 92.3816 26.7921 92.4065 27.4332C92.3782 28.0748 92.5991 28.7023 93.0224 29.1826C93.2094 29.4034 93.4426 29.5799 93.7053 29.6993C93.9679 29.8188 94.2536 29.8782 94.5418 29.8734ZM94.5012 34.0074C94.144 34.0113 93.7883 33.9599 93.4465 33.8551C93.1271 33.7694 92.8224 33.6354 92.543 33.4577C92.2837 33.2881 92.0522 33.0788 91.857 32.8374C91.6661 32.5979 91.5187 32.3263 91.4218 32.0351L92.6094 31.5411C92.741 31.9258 92.9901 32.2586 93.3211 32.492C93.6659 32.7376 94.0789 32.8675 94.5012 32.8634C94.7965 32.8808 95.092 32.8344 95.368 32.7275C95.6441 32.6205 95.8942 32.4553 96.1017 32.2431C96.5069 31.7706 96.7132 31.1578 96.677 30.5346V29.8734H96.6217C96.3757 30.2379 96.0403 30.5321 95.6481 30.7277C95.2402 30.9313 94.7905 31.0356 94.3352 31.0323C93.9069 31.0349 93.4831 30.9436 93.0934 30.7646C92.7036 30.5857 92.3572 30.3234 92.0783 29.996C91.4556 29.2919 91.122 28.3758 91.1452 27.4332C91.1213 26.4949 91.4552 25.5831 92.0783 24.8852C92.3562 24.5558 92.7021 24.2914 93.0919 24.1105C93.4818 23.9296 93.906 23.8365 94.3352 23.8378C94.792 23.8328 95.2429 23.9413 95.6481 24.1535C96.0417 24.3401 96.378 24.6301 96.6217 24.9929H96.677V24.057H97.8793V30.5197C97.9056 30.9855 97.8378 31.4518 97.68 31.8904C97.5222 32.329 97.2775 32.7308 96.961 33.0714C96.6336 33.3884 96.245 33.6344 95.8194 33.7942C95.3937 33.9539 94.9401 34.0239 94.4865 33.9999L94.5012 34.0074Z" fill="#242424"/>
</g>
</g>
<defs>
<clipPath id="clip0_526_1300">
<rect width="125.8" height="34" fill="white"/>
</clipPath>
</defs>
</svg>
