<svg width="48" height="48" viewBox="0 0 48 48" fill="none" xmlns="http://www.w3.org/2000/svg">
<circle cx="24" cy="24" r="23" stroke="#228B22" stroke-width="2"/>
<path d="M30 28C28.5 29.5 24 33 20 29C16 25 19.5 20.5 21 19C21 19 22 18 22.5 18.5C23 19 24 20.5 24 20.5C24 20.5 23.5 21 23 21.5C22.5 22 22.5 22.5 22.5 23C22.5 23.5 23 24 23.5 24.5C24 25 24.5 25.5 25 25.5C25.5 25.5 26 25 26.5 24.5C27 24 27.5 23.5 27.5 23.5C27.5 23.5 29 24.5 29.5 25C30 25.5 29 26.5 29 26.5C29 26.5 31.5 26.5 30 28Z" stroke="#228B22" stroke-width="2" stroke-linecap="round" stroke-linejoin="round"/>
</svg>
